<?xml version="1.0" standalone="no"?>
<!DOCTYPE svg PUBLIC "-//W3C//DTD SVG 20010904//EN"
 "http://www.w3.org/TR/2001/REC-SVG-20010904/DTD/svg10.dtd">
<svg version="1.0" xmlns="http://www.w3.org/2000/svg"
 width="619.000000pt" height="619.000000pt" viewBox="0 0 619.000000 619.000000"
 preserveAspectRatio="xMidYMid meet">
<metadata>
Created by potrace 1.14, written by Peter Selinger 2001-2017
</metadata>
<g transform="translate(0.000000,619.000000) scale(0.100000,-0.100000)"
fill="#000000" stroke="none">
<path d="M1907 4894 c-1 -1 -49 -4 -107 -8 -121 -7 -138 -10 -246 -36 -43 -11
-88 -22 -99 -25 -20 -5 -49 -15 -115 -42 -65 -26 -240 -117 -240 -125 0 -3 -8
-9 -19 -13 -34 -11 -164 -113 -250 -197 -336 -330 -524 -761 -557 -1284 -6
-94 0 -126 31 -160 46 -49 128 -45 180 10 11 12 33 31 49 43 l29 23 18 -38
c22 -44 64 -72 109 -72 36 0 55 9 96 44 69 60 89 76 95 76 4 0 9 -17 13 -37
11 -63 56 -103 118 -103 34 0 63 15 108 58 67 61 172 123 310 179 70 29 326
-151 429 -301 55 -79 120 -222 137 -300 28 -124 37 -292 20 -381 -54 -282
-230 -510 -506 -654 -55 -29 -100 -49 -100 -45 0 3 -6 2 -12 -4 -17 -13 -136
-48 -245 -72 -81 -17 -226 -22 -249 -8 -5 3 -36 9 -69 13 -32 3 -62 8 -65 10
-3 2 -21 6 -40 9 -68 11 -96 16 -145 27 -27 5 -60 12 -72 15 -19 4 -23 0 -23
-21 0 -26 18 -38 85 -55 17 -4 174 -51 350 -105 402 -123 524 -151 705 -161
117 -6 372 -6 400 0 14 3 48 8 75 11 56 7 75 9 190 25 146 21 210 45 385 148
108 63 361 185 465 225 150 56 213 77 298 102 133 38 321 76 452 91 22 3 51 7
65 9 153 27 706 27 945 1 17 -2 57 -6 90 -10 33 -3 76 -8 95 -11 19 -2 60 -7
90 -10 30 -4 66 -8 80 -10 14 -2 45 -7 70 -11 25 -3 54 -8 65 -9 88 -12 139
-21 245 -40 14 -2 63 -11 110 -19 47 -8 130 -25 185 -36 55 -12 111 -24 125
-26 14 -3 31 -7 38 -9 7 -3 10 0 7 5 -3 6 -11 10 -17 10 -16 0 -221 211 -248
255 -13 22 -38 55 -55 73 -16 18 -38 47 -47 64 -10 18 -18 30 -18 26 0 -4 -17
10 -37 32 -50 52 -65 70 -58 70 10 0 -49 85 -72 103 -13 10 -23 24 -23 31 0 7
-11 25 -25 40 -13 14 -21 26 -18 26 4 0 -8 13 -25 28 -18 16 -32 34 -32 40 0
7 -4 12 -10 12 -5 0 -10 6 -10 13 0 8 -17 32 -37 54 -21 22 -45 50 -53 63 -18
28 -72 80 -82 80 -5 0 -8 4 -8 10 0 15 -49 83 -81 113 -17 15 -27 27 -23 27 4
0 -3 8 -14 19 -12 10 -19 20 -17 23 3 3 -1 11 -10 18 -8 7 -15 18 -15 24 0 7
-16 29 -35 50 -19 21 -46 62 -61 92 -14 30 -31 54 -36 54 -5 0 -7 4 -4 8 3 5
-5 19 -17 33 -12 14 -23 31 -25 39 -2 8 -8 17 -13 18 -5 2 -9 7 -9 12 0 4 -13
21 -28 38 -16 16 -39 52 -53 78 -13 27 -36 62 -51 79 -16 16 -28 33 -28 37 0
5 -259 317 -294 354 -6 6 -33 38 -61 70 -125 147 -405 433 -525 535 -122 104
-268 208 -380 272 -53 30 -220 112 -260 127 -19 7 -39 17 -45 21 -18 13 -249
81 -325 95 -106 20 -144 24 -240 25 -47 1 -118 5 -158 11 -56 7 -507 18 -515
12z"/>
</g>
</svg>
